<svg xmlns="http://www.w3.org/2000/svg" xmlns:xlink="http://www.w3.org/1999/xlink" width="500" zoomAndPan="magnify" viewBox="0 0 375 374.999991" height="500" preserveAspectRatio="xMidYMid meet" version="1.0"><defs><g/></defs><g fill="#000000" fill-opacity="1"><g transform="translate(180.475041, 36.380629)"><g><path d="M 7.023438 -17.050781 C 2.421875 -17.050781 0.992188 -13.222656 0.992188 -8.355469 C 0.992188 -3.511719 2.421875 0.339844 7.023438 0.339844 C 11.625 0.339844 13.054688 -3.511719 13.054688 -8.355469 C 13.054688 -13.222656 11.625 -17.050781 7.023438 -17.050781 Z M 7.023438 -1.308594 C 4.359375 -1.308594 3.316406 -3.996094 3.316406 -8.355469 C 3.316406 -12.738281 4.359375 -15.402344 7.023438 -15.402344 C 9.6875 -15.402344 10.730469 -12.738281 10.730469 -8.355469 C 10.730469 -3.996094 9.6875 -1.308594 7.023438 -1.308594 Z M 7.023438 -1.308594 "/></g></g></g><g fill="#000000" fill-opacity="1"><g transform="translate(259.778512, 56.428413)"><g><path d="M 7.433594 -11.019531 C 6.417969 -11.019531 5.59375 -10.800781 4.796875 -10.316406 L 3.753906 -9.203125 L 4.503906 -15.015625 L 12.304688 -15.015625 L 12.304688 -16.710938 L 2.808594 -16.710938 L 1.648438 -7 L 3.632812 -7 C 4.457031 -8.71875 5.570312 -9.371094 7.121094 -9.371094 C 9.347656 -9.371094 10.679688 -7.796875 10.679688 -5.28125 C 10.679688 -2.761719 9.226562 -1.308594 7.023438 -1.308594 C 4.941406 -1.308594 3.898438 -2.519531 3.511719 -4.433594 L 3.464844 -4.675781 L 1.378906 -4.675781 L 1.40625 -4.433594 C 1.71875 -1.285156 3.679688 0.339844 7.046875 0.339844 C 10.148438 0.339844 13.003906 -1.742188 13.003906 -5.425781 C 13.003906 -8.597656 11.164062 -11.019531 7.433594 -11.019531 Z M 7.433594 -11.019531 "/></g></g></g><g fill="#000000" fill-opacity="1"><g transform="translate(315.969505, 112.50558)"><g><path d="M 9.832031 -16.710938 L 8.5 -16.710938 C 7.917969 -16.710938 7.339844 -16.589844 6.683594 -16.179688 L 3.148438 -13.972656 L 3.148438 -11.769531 L 7.75 -14.507812 L 7.75 0 L 9.832031 0 Z M 9.832031 -16.710938 "/></g></g></g><g fill="#000000" fill-opacity="1"><g transform="translate(330.015269, 112.50558)"><g><path d="M 7.023438 -17.050781 C 2.421875 -17.050781 0.992188 -13.222656 0.992188 -8.355469 C 0.992188 -3.511719 2.421875 0.339844 7.023438 0.339844 C 11.625 0.339844 13.054688 -3.511719 13.054688 -8.355469 C 13.054688 -13.222656 11.625 -17.050781 7.023438 -17.050781 Z M 7.023438 -1.308594 C 4.359375 -1.308594 3.316406 -3.996094 3.316406 -8.355469 C 3.316406 -12.738281 4.359375 -15.402344 7.023438 -15.402344 C 9.6875 -15.402344 10.730469 -12.738281 10.730469 -8.355469 C 10.730469 -3.996094 9.6875 -1.308594 7.023438 -1.308594 Z M 7.023438 -1.308594 "/></g></g></g><g fill="#000000" fill-opacity="1"><g transform="translate(337.499982, 196.219432)"><g><path d="M 9.832031 -16.710938 L 8.5 -16.710938 C 7.917969 -16.710938 7.339844 -16.589844 6.683594 -16.179688 L 3.148438 -13.972656 L 3.148438 -11.769531 L 7.75 -14.507812 L 7.75 0 L 9.832031 0 Z M 9.832031 -16.710938 "/></g></g></g><g fill="#000000" fill-opacity="1"><g transform="translate(351.545747, 196.219432)"><g><path d="M 7.433594 -11.019531 C 6.417969 -11.019531 5.59375 -10.800781 4.796875 -10.316406 L 3.753906 -9.203125 L 4.503906 -15.015625 L 12.304688 -15.015625 L 12.304688 -16.710938 L 2.808594 -16.710938 L 1.648438 -7 L 3.632812 -7 C 4.457031 -8.71875 5.570312 -9.371094 7.121094 -9.371094 C 9.347656 -9.371094 10.679688 -7.796875 10.679688 -5.28125 C 10.679688 -2.761719 9.226562 -1.308594 7.023438 -1.308594 C 4.941406 -1.308594 3.898438 -2.519531 3.511719 -4.433594 L 3.464844 -4.675781 L 1.378906 -4.675781 L 1.40625 -4.433594 C 1.71875 -1.285156 3.679688 0.339844 7.046875 0.339844 C 10.148438 0.339844 13.003906 -1.742188 13.003906 -5.425781 C 13.003906 -8.597656 11.164062 -11.019531 7.433594 -11.019531 Z M 7.433594 -11.019531 "/></g></g></g><g fill="#000000" fill-opacity="1"><g transform="translate(315.969505, 275.641086)"><g><path d="M 4.480469 -1.695312 L 8.671875 -5.835938 C 11.503906 -8.621094 12.738281 -10.171875 12.738281 -12.449219 C 12.738281 -14.941406 11.066406 -17.050781 7.652344 -17.050781 C 4.3125 -17.050781 2.226562 -15.210938 1.890625 -11.722656 L 1.863281 -11.480469 L 3.949219 -11.480469 L 3.972656 -11.722656 C 4.214844 -14.070312 5.253906 -15.402344 7.410156 -15.402344 C 9.421875 -15.402344 10.414062 -13.925781 10.414062 -12.207031 C 10.414062 -10.582031 9.46875 -9.371094 7.507812 -7.363281 L 1.453125 -1.1875 L 1.453125 0 L 12.667969 0 L 12.667969 -1.695312 Z M 4.480469 -1.695312 "/></g></g></g><g fill="#000000" fill-opacity="1"><g transform="translate(330.015269, 275.641086)"><g><path d="M 7.023438 -17.050781 C 2.421875 -17.050781 0.992188 -13.222656 0.992188 -8.355469 C 0.992188 -3.511719 2.421875 0.339844 7.023438 0.339844 C 11.625 0.339844 13.054688 -3.511719 13.054688 -8.355469 C 13.054688 -13.222656 11.625 -17.050781 7.023438 -17.050781 Z M 7.023438 -1.308594 C 4.359375 -1.308594 3.316406 -3.996094 3.316406 -8.355469 C 3.316406 -12.738281 4.359375 -15.402344 7.023438 -15.402344 C 9.6875 -15.402344 10.730469 -12.738281 10.730469 -8.355469 C 10.730469 -3.996094 9.6875 -1.308594 7.023438 -1.308594 Z M 7.023438 -1.308594 "/></g></g></g><g fill="#000000" fill-opacity="1"><g transform="translate(252.756434, 340.190478)"><g><path d="M 4.480469 -1.695312 L 8.671875 -5.835938 C 11.503906 -8.621094 12.738281 -10.171875 12.738281 -12.449219 C 12.738281 -14.941406 11.066406 -17.050781 7.652344 -17.050781 C 4.3125 -17.050781 2.226562 -15.210938 1.890625 -11.722656 L 1.863281 -11.480469 L 3.949219 -11.480469 L 3.972656 -11.722656 C 4.214844 -14.070312 5.253906 -15.402344 7.410156 -15.402344 C 9.421875 -15.402344 10.414062 -13.925781 10.414062 -12.207031 C 10.414062 -10.582031 9.46875 -9.371094 7.507812 -7.363281 L 1.453125 -1.1875 L 1.453125 0 L 12.667969 0 L 12.667969 -1.695312 Z M 4.480469 -1.695312 "/></g></g></g><g fill="#000000" fill-opacity="1"><g transform="translate(266.802199, 340.190478)"><g><path d="M 7.433594 -11.019531 C 6.417969 -11.019531 5.59375 -10.800781 4.796875 -10.316406 L 3.753906 -9.203125 L 4.503906 -15.015625 L 12.304688 -15.015625 L 12.304688 -16.710938 L 2.808594 -16.710938 L 1.648438 -7 L 3.632812 -7 C 4.457031 -8.71875 5.570312 -9.371094 7.121094 -9.371094 C 9.347656 -9.371094 10.679688 -7.796875 10.679688 -5.28125 C 10.679688 -2.761719 9.226562 -1.308594 7.023438 -1.308594 C 4.941406 -1.308594 3.898438 -2.519531 3.511719 -4.433594 L 3.464844 -4.675781 L 1.378906 -4.675781 L 1.40625 -4.433594 C 1.71875 -1.285156 3.679688 0.339844 7.046875 0.339844 C 10.148438 0.339844 13.003906 -1.742188 13.003906 -5.425781 C 13.003906 -8.597656 11.164062 -11.019531 7.433594 -11.019531 Z M 7.433594 -11.019531 "/></g></g></g><g fill="#000000" fill-opacity="1"><g transform="translate(173.452947, 360.509587)"><g><path d="M 9.589844 -8.886719 C 11.335938 -9.398438 12.546875 -10.898438 12.546875 -12.8125 C 12.546875 -15.332031 10.609375 -17.050781 7.53125 -17.050781 C 4.140625 -17.050781 2.082031 -15.160156 1.769531 -12.132812 L 1.742188 -11.890625 L 3.828125 -11.890625 L 3.851562 -12.132812 C 4.070312 -14.335938 5.496094 -15.402344 7.265625 -15.402344 C 9.035156 -15.402344 10.21875 -14.242188 10.21875 -12.570312 C 10.21875 -10.460938 8.621094 -9.300781 6.636719 -9.300781 L 6.222656 -9.300781 L 6.222656 -7.605469 L 6.636719 -7.605469 C 9.347656 -7.605469 10.609375 -6.492188 10.609375 -4.527344 C 10.609375 -2.496094 9.128906 -1.308594 7.070312 -1.308594 C 5.039062 -1.308594 3.4375 -2.347656 3.195312 -4.699219 L 3.171875 -4.941406 L 1.089844 -4.941406 L 1.113281 -4.699219 C 1.476562 -1.089844 3.707031 0.339844 6.878906 0.339844 C 10.097656 0.339844 12.933594 -1.527344 12.933594 -4.648438 C 12.933594 -6.828125 11.648438 -8.308594 9.589844 -8.886719 Z M 9.589844 -8.886719 "/></g></g></g><g fill="#000000" fill-opacity="1"><g transform="translate(187.498711, 360.509587)"><g><path d="M 7.023438 -17.050781 C 2.421875 -17.050781 0.992188 -13.222656 0.992188 -8.355469 C 0.992188 -3.511719 2.421875 0.339844 7.023438 0.339844 C 11.625 0.339844 13.054688 -3.511719 13.054688 -8.355469 C 13.054688 -13.222656 11.625 -17.050781 7.023438 -17.050781 Z M 7.023438 -1.308594 C 4.359375 -1.308594 3.316406 -3.996094 3.316406 -8.355469 C 3.316406 -12.738281 4.359375 -15.402344 7.023438 -15.402344 C 9.6875 -15.402344 10.730469 -12.738281 10.730469 -8.355469 C 10.730469 -3.996094 9.6875 -1.308594 7.023438 -1.308594 Z M 7.023438 -1.308594 "/></g></g></g><g fill="#000000" fill-opacity="1"><g transform="translate(92.485597, 340.190478)"><g><path d="M 9.589844 -8.886719 C 11.335938 -9.398438 12.546875 -10.898438 12.546875 -12.8125 C 12.546875 -15.332031 10.609375 -17.050781 7.53125 -17.050781 C 4.140625 -17.050781 2.082031 -15.160156 1.769531 -12.132812 L 1.742188 -11.890625 L 3.828125 -11.890625 L 3.851562 -12.132812 C 4.070312 -14.335938 5.496094 -15.402344 7.265625 -15.402344 C 9.035156 -15.402344 10.21875 -14.242188 10.21875 -12.570312 C 10.21875 -10.460938 8.621094 -9.300781 6.636719 -9.300781 L 6.222656 -9.300781 L 6.222656 -7.605469 L 6.636719 -7.605469 C 9.347656 -7.605469 10.609375 -6.492188 10.609375 -4.527344 C 10.609375 -2.496094 9.128906 -1.308594 7.070312 -1.308594 C 5.039062 -1.308594 3.4375 -2.347656 3.195312 -4.699219 L 3.171875 -4.941406 L 1.089844 -4.941406 L 1.113281 -4.699219 C 1.476562 -1.089844 3.707031 0.339844 6.878906 0.339844 C 10.097656 0.339844 12.933594 -1.527344 12.933594 -4.648438 C 12.933594 -6.828125 11.648438 -8.308594 9.589844 -8.886719 Z M 9.589844 -8.886719 "/></g></g></g><g fill="#000000" fill-opacity="1"><g transform="translate(106.531361, 340.190478)"><g><path d="M 7.433594 -11.019531 C 6.417969 -11.019531 5.59375 -10.800781 4.796875 -10.316406 L 3.753906 -9.203125 L 4.503906 -15.015625 L 12.304688 -15.015625 L 12.304688 -16.710938 L 2.808594 -16.710938 L 1.648438 -7 L 3.632812 -7 C 4.457031 -8.71875 5.570312 -9.371094 7.121094 -9.371094 C 9.347656 -9.371094 10.679688 -7.796875 10.679688 -5.28125 C 10.679688 -2.761719 9.226562 -1.308594 7.023438 -1.308594 C 4.941406 -1.308594 3.898438 -2.519531 3.511719 -4.433594 L 3.464844 -4.675781 L 1.378906 -4.675781 L 1.40625 -4.433594 C 1.71875 -1.285156 3.679688 0.339844 7.046875 0.339844 C 10.148438 0.339844 13.003906 -1.742188 13.003906 -5.425781 C 13.003906 -8.597656 11.164062 -11.019531 7.433594 -11.019531 Z M 7.433594 -11.019531 "/></g></g></g><g fill="#000000" fill-opacity="1"><g transform="translate(32.405247, 275.641086)"><g><path d="M 13.273438 -4.214844 L 13.273438 -5.910156 L 11.164062 -5.910156 L 11.164062 -16.710938 L 9.082031 -16.710938 L 0.800781 -5.253906 L 0.800781 -4.214844 L 9.082031 -4.214844 L 9.082031 0 L 11.164062 0 L 11.164062 -4.214844 Z M 9.082031 -5.910156 L 3.4375 -5.910156 L 7.703125 -11.792969 C 8.257812 -12.570312 8.695312 -13.273438 9.082031 -13.925781 Z M 9.082031 -5.910156 "/></g></g></g><g fill="#000000" fill-opacity="1"><g transform="translate(46.451011, 275.641086)"><g><path d="M 7.023438 -17.050781 C 2.421875 -17.050781 0.992188 -13.222656 0.992188 -8.355469 C 0.992188 -3.511719 2.421875 0.339844 7.023438 0.339844 C 11.625 0.339844 13.054688 -3.511719 13.054688 -8.355469 C 13.054688 -13.222656 11.625 -17.050781 7.023438 -17.050781 Z M 7.023438 -1.308594 C 4.359375 -1.308594 3.316406 -3.996094 3.316406 -8.355469 C 3.316406 -12.738281 4.359375 -15.402344 7.023438 -15.402344 C 9.6875 -15.402344 10.730469 -12.738281 10.730469 -8.355469 C 10.730469 -3.996094 9.6875 -1.308594 7.023438 -1.308594 Z M 7.023438 -1.308594 "/></g></g></g><g fill="#000000" fill-opacity="1"><g transform="translate(9.405922, 196.219432)"><g><path d="M 13.273438 -4.214844 L 13.273438 -5.910156 L 11.164062 -5.910156 L 11.164062 -16.710938 L 9.082031 -16.710938 L 0.800781 -5.253906 L 0.800781 -4.214844 L 9.082031 -4.214844 L 9.082031 0 L 11.164062 0 L 11.164062 -4.214844 Z M 9.082031 -5.910156 L 3.4375 -5.910156 L 7.703125 -11.792969 C 8.257812 -12.570312 8.695312 -13.273438 9.082031 -13.925781 Z M 9.082031 -5.910156 "/></g></g></g><g fill="#000000" fill-opacity="1"><g transform="translate(23.451687, 196.219432)"><g><path d="M 7.433594 -11.019531 C 6.417969 -11.019531 5.59375 -10.800781 4.796875 -10.316406 L 3.753906 -9.203125 L 4.503906 -15.015625 L 12.304688 -15.015625 L 12.304688 -16.710938 L 2.808594 -16.710938 L 1.648438 -7 L 3.632812 -7 C 4.457031 -8.71875 5.570312 -9.371094 7.121094 -9.371094 C 9.347656 -9.371094 10.679688 -7.796875 10.679688 -5.28125 C 10.679688 -2.761719 9.226562 -1.308594 7.023438 -1.308594 C 4.941406 -1.308594 3.898438 -2.519531 3.511719 -4.433594 L 3.464844 -4.675781 L 1.378906 -4.675781 L 1.40625 -4.433594 C 1.71875 -1.285156 3.679688 0.339844 7.046875 0.339844 C 10.148438 0.339844 13.003906 -1.742188 13.003906 -5.425781 C 13.003906 -8.597656 11.164062 -11.019531 7.433594 -11.019531 Z M 7.433594 -11.019531 "/></g></g></g><g fill="#000000" fill-opacity="1"><g transform="translate(32.405247, 112.50558)"><g><path d="M 7.433594 -11.019531 C 6.417969 -11.019531 5.59375 -10.800781 4.796875 -10.316406 L 3.753906 -9.203125 L 4.503906 -15.015625 L 12.304688 -15.015625 L 12.304688 -16.710938 L 2.808594 -16.710938 L 1.648438 -7 L 3.632812 -7 C 4.457031 -8.71875 5.570312 -9.371094 7.121094 -9.371094 C 9.347656 -9.371094 10.679688 -7.796875 10.679688 -5.28125 C 10.679688 -2.761719 9.226562 -1.308594 7.023438 -1.308594 C 4.941406 -1.308594 3.898438 -2.519531 3.511719 -4.433594 L 3.464844 -4.675781 L 1.378906 -4.675781 L 1.40625 -4.433594 C 1.71875 -1.285156 3.679688 0.339844 7.046875 0.339844 C 10.148438 0.339844 13.003906 -1.742188 13.003906 -5.425781 C 13.003906 -8.597656 11.164062 -11.019531 7.433594 -11.019531 Z M 7.433594 -11.019531 "/></g></g></g><g fill="#000000" fill-opacity="1"><g transform="translate(46.451011, 112.50558)"><g><path d="M 7.023438 -17.050781 C 2.421875 -17.050781 0.992188 -13.222656 0.992188 -8.355469 C 0.992188 -3.511719 2.421875 0.339844 7.023438 0.339844 C 11.625 0.339844 13.054688 -3.511719 13.054688 -8.355469 C 13.054688 -13.222656 11.625 -17.050781 7.023438 -17.050781 Z M 7.023438 -1.308594 C 4.359375 -1.308594 3.316406 -3.996094 3.316406 -8.355469 C 3.316406 -12.738281 4.359375 -15.402344 7.023438 -15.402344 C 9.6875 -15.402344 10.730469 -12.738281 10.730469 -8.355469 C 10.730469 -3.996094 9.6875 -1.308594 7.023438 -1.308594 Z M 7.023438 -1.308594 "/></g></g></g><g fill="#000000" fill-opacity="1"><g transform="translate(92.485597, 56.428413)"><g><path d="M 7.433594 -11.019531 C 6.417969 -11.019531 5.59375 -10.800781 4.796875 -10.316406 L 3.753906 -9.203125 L 4.503906 -15.015625 L 12.304688 -15.015625 L 12.304688 -16.710938 L 2.808594 -16.710938 L 1.648438 -7 L 3.632812 -7 C 4.457031 -8.71875 5.570312 -9.371094 7.121094 -9.371094 C 9.347656 -9.371094 10.679688 -7.796875 10.679688 -5.28125 C 10.679688 -2.761719 9.226562 -1.308594 7.023438 -1.308594 C 4.941406 -1.308594 3.898438 -2.519531 3.511719 -4.433594 L 3.464844 -4.675781 L 1.378906 -4.675781 L 1.40625 -4.433594 C 1.71875 -1.285156 3.679688 0.339844 7.046875 0.339844 C 10.148438 0.339844 13.003906 -1.742188 13.003906 -5.425781 C 13.003906 -8.597656 11.164062 -11.019531 7.433594 -11.019531 Z M 7.433594 -11.019531 "/></g></g></g><g fill="#000000" fill-opacity="1"><g transform="translate(106.531361, 56.428413)"><g><path d="M 7.433594 -11.019531 C 6.417969 -11.019531 5.59375 -10.800781 4.796875 -10.316406 L 3.753906 -9.203125 L 4.503906 -15.015625 L 12.304688 -15.015625 L 12.304688 -16.710938 L 2.808594 -16.710938 L 1.648438 -7 L 3.632812 -7 C 4.457031 -8.71875 5.570312 -9.371094 7.121094 -9.371094 C 9.347656 -9.371094 10.679688 -7.796875 10.679688 -5.28125 C 10.679688 -2.761719 9.226562 -1.308594 7.023438 -1.308594 C 4.941406 -1.308594 3.898438 -2.519531 3.511719 -4.433594 L 3.464844 -4.675781 L 1.378906 -4.675781 L 1.40625 -4.433594 C 1.71875 -1.285156 3.679688 0.339844 7.046875 0.339844 C 10.148438 0.339844 13.003906 -1.742188 13.003906 -5.425781 C 13.003906 -8.597656 11.164062 -11.019531 7.433594 -11.019531 Z M 7.433594 -11.019531 "/></g></g></g></svg>