<svg xmlns="http://www.w3.org/2000/svg" xmlns:xlink="http://www.w3.org/1999/xlink" width="500" zoomAndPan="magnify" viewBox="0 0 375 374.999991" height="500" preserveAspectRatio="xMidYMid meet" version="1.0"><defs><clipPath id="9a0add1ad0"><path d="M 47.578125 0 L 327.328125 0 L 327.328125 375 L 47.578125 375 Z M 47.578125 0 " clip-rule="nonzero"/></clipPath></defs><g clip-path="url(#9a0add1ad0)"><path fill="#006837" d="M 187.34375 375 C 150.59375 374.957031 115.882812 362.066406 89.632812 338.628906 C 62.515625 314.410156 47.589844 281.988281 47.589844 247.308594 C 47.589844 222.265625 55.53125 198.003906 70.542969 177.171875 C 84.382812 157.984375 91.457031 135.242188 91.023438 111.414062 C 91.023438 110.675781 91.023438 109.894531 91.023438 109.15625 C 91.023438 80.859375 100.523438 54.035156 117.707031 33.636719 C 136.058594 11.9375 160.835938 0 187.476562 0 C 214.113281 0 238.890625 11.9375 257.199219 33.636719 C 274.425781 54.035156 283.882812 80.816406 283.882812 109.15625 C 283.882812 109.9375 283.882812 110.675781 283.882812 111.414062 C 283.449219 135.242188 290.523438 157.984375 304.363281 177.171875 C 319.375 198.003906 327.316406 222.265625 327.316406 247.308594 C 327.316406 281.988281 312.390625 314.410156 285.273438 338.628906 C 259.023438 362.066406 224.355469 374.957031 187.605469 375 Z M 187.34375 375 " fill-opacity="1" fill-rule="nonzero"/></g><path fill="#39b54a" d="M 187.34375 361.328125 C 153.9375 361.285156 122.480469 349.609375 98.746094 328.429688 C 74.578125 306.859375 61.257812 278.039062 61.257812 247.308594 C 61.257812 225.128906 68.289062 203.644531 81.652344 185.15625 C 97.226562 163.542969 105.210938 137.976562 104.691406 111.199219 C 104.691406 110.546875 104.691406 109.851562 104.691406 109.15625 C 104.691406 84.070312 113.019531 60.375 128.164062 42.449219 C 143.871094 23.871094 164.914062 13.671875 187.476562 13.671875 C 210.035156 13.671875 231.078125 23.871094 246.785156 42.449219 C 261.929688 60.375 270.257812 84.070312 270.257812 109.15625 C 270.257812 109.851562 270.257812 110.503906 270.257812 111.199219 C 269.78125 137.976562 277.765625 163.585938 293.296875 185.15625 C 306.617188 203.644531 313.691406 225.128906 313.691406 247.308594 C 313.691406 278.039062 300.371094 306.859375 276.203125 328.429688 C 252.46875 349.609375 221.015625 361.285156 187.605469 361.328125 Z M 187.34375 361.328125 " fill-opacity="1" fill-rule="nonzero"/><path fill="#d9e021" d="M 187.476562 347.699219 C 187.519531 347.699219 187.5625 347.699219 187.605469 347.699219 C 249.738281 347.65625 300.066406 302.734375 300.066406 247.351562 C 300.066406 227.386719 293.515625 208.8125 282.277344 193.1875 C 264.664062 168.75 256.113281 140.0625 256.636719 110.980469 C 256.636719 110.375 256.636719 109.808594 256.636719 109.203125 C 256.636719 63.933594 225.65625 27.300781 187.476562 27.300781 C 149.292969 27.300781 118.3125 63.933594 118.3125 109.15625 C 118.3125 109.765625 118.3125 110.328125 118.3125 110.9375 C 118.835938 140.015625 110.332031 168.707031 92.671875 193.140625 C 81.390625 208.765625 74.882812 227.386719 74.882812 247.308594 C 74.882812 302.691406 125.210938 347.613281 187.34375 347.65625 C 187.386719 347.699219 187.429688 347.699219 187.476562 347.699219 Z M 187.476562 347.699219 " fill-opacity="1" fill-rule="nonzero"/><path fill="#754c24" d="M 241.535156 245.269531 C 241.535156 247.039062 241.449219 248.808594 241.277344 250.570312 C 241.101562 252.332031 240.84375 254.082031 240.496094 255.820312 C 240.152344 257.554688 239.722656 259.273438 239.207031 260.96875 C 238.695312 262.664062 238.097656 264.328125 237.421875 265.964844 C 236.742188 267.601562 235.988281 269.199219 235.152344 270.761719 C 234.316406 272.324219 233.410156 273.839844 232.425781 275.3125 C 231.441406 276.785156 230.386719 278.207031 229.265625 279.578125 C 228.140625 280.945312 226.953125 282.257812 225.703125 283.507812 C 224.449219 284.761719 223.140625 285.949219 221.769531 287.074219 C 220.402344 288.195312 218.980469 289.25 217.511719 290.234375 C 216.039062 291.21875 214.519531 292.128906 212.960938 292.964844 C 211.398438 293.796875 209.800781 294.554688 208.164062 295.230469 C 206.527344 295.910156 204.863281 296.507812 203.167969 297.019531 C 201.472656 297.535156 199.757812 297.964844 198.023438 298.308594 C 196.285156 298.65625 194.535156 298.914062 192.773438 299.089844 C 191.011719 299.261719 189.246094 299.347656 187.476562 299.347656 C 185.703125 299.347656 183.9375 299.261719 182.175781 299.089844 C 180.414062 298.914062 178.664062 298.65625 176.929688 298.308594 C 175.191406 297.964844 173.476562 297.535156 171.78125 297.019531 C 170.085938 296.507812 168.421875 295.910156 166.785156 295.230469 C 165.152344 294.554688 163.550781 293.796875 161.992188 292.964844 C 160.429688 292.128906 158.910156 291.21875 157.441406 290.234375 C 155.96875 289.25 154.546875 288.195312 153.179688 287.074219 C 151.808594 285.949219 150.5 284.761719 149.246094 283.507812 C 147.996094 282.257812 146.808594 280.945312 145.683594 279.578125 C 144.5625 278.207031 143.507812 276.785156 142.523438 275.3125 C 141.539062 273.839844 140.632812 272.324219 139.796875 270.761719 C 138.960938 269.199219 138.207031 267.601562 137.527344 265.964844 C 136.851562 264.328125 136.253906 262.664062 135.742188 260.96875 C 135.226562 259.273438 134.796875 257.554688 134.453125 255.820312 C 134.105469 254.082031 133.847656 252.332031 133.671875 250.570312 C 133.5 248.808594 133.414062 247.039062 133.414062 245.269531 C 133.414062 243.496094 133.5 241.730469 133.671875 239.96875 C 133.847656 238.207031 134.105469 236.457031 134.453125 234.71875 C 134.796875 232.980469 135.226562 231.265625 135.742188 229.570312 C 136.253906 227.875 136.851562 226.210938 137.527344 224.574219 C 138.207031 222.9375 138.960938 221.339844 139.796875 219.777344 C 140.632812 218.214844 141.539062 216.695312 142.523438 215.222656 C 143.507812 213.75 144.5625 212.332031 145.683594 210.960938 C 146.808594 209.59375 147.996094 208.28125 149.246094 207.027344 C 150.5 205.777344 151.808594 204.589844 153.179688 203.464844 C 154.546875 202.339844 155.96875 201.289062 157.441406 200.304688 C 158.910156 199.320312 160.429688 198.410156 161.992188 197.574219 C 163.550781 196.738281 165.152344 195.984375 166.785156 195.304688 C 168.421875 194.628906 170.085938 194.03125 171.78125 193.519531 C 173.476562 193.003906 175.191406 192.574219 176.929688 192.226562 C 178.664062 191.882812 180.414062 191.625 182.175781 191.449219 C 183.9375 191.277344 185.703125 191.1875 187.476562 191.1875 C 189.246094 191.1875 191.011719 191.277344 192.773438 191.449219 C 194.535156 191.625 196.285156 191.882812 198.023438 192.226562 C 199.757812 192.574219 201.472656 193.003906 203.167969 193.519531 C 204.863281 194.03125 206.527344 194.628906 208.164062 195.304688 C 209.800781 195.984375 211.398438 196.738281 212.960938 197.574219 C 214.519531 198.410156 216.039062 199.320312 217.511719 200.304688 C 218.980469 201.289062 220.402344 202.339844 221.769531 203.464844 C 223.140625 204.589844 224.449219 205.777344 225.703125 207.027344 C 226.953125 208.28125 228.140625 209.59375 229.265625 210.960938 C 230.386719 212.332031 231.441406 213.75 232.425781 215.222656 C 233.410156 216.695312 234.316406 218.214844 235.152344 219.777344 C 235.988281 221.339844 236.742188 222.9375 237.421875 224.574219 C 238.097656 226.210938 238.695312 227.875 239.207031 229.570312 C 239.722656 231.265625 240.152344 232.980469 240.496094 234.71875 C 240.84375 236.457031 241.101562 238.207031 241.277344 239.96875 C 241.449219 241.730469 241.535156 243.496094 241.535156 245.269531 Z M 241.535156 245.269531 " fill-opacity="1" fill-rule="nonzero"/><path fill="#a67c52" d="M 222.488281 231.207031 C 216.847656 236.457031 205.609375 234.722656 195.675781 230.511719 C 185.824219 226.042969 176.976562 218.96875 177.019531 211.242188 C 176.929688 203.601562 190.945312 198.699219 206.652344 205.554688 C 222.316406 212.414062 228.171875 226.128906 222.488281 231.207031 Z M 222.488281 231.207031 " fill-opacity="1" fill-rule="nonzero"/></svg>