<svg xmlns="http://www.w3.org/2000/svg" xmlns:xlink="http://www.w3.org/1999/xlink" width="400" zoomAndPan="magnify" viewBox="0 -100 375 450" height="400" preserveAspectRatio="xMidYMid meet" version="1.0"><defs><clipPath id="1f85200c2f"><path d="M 149 28.886719 L 226 28.886719 L 226 346.136719 L 149 346.136719 Z M 149 28.886719 " clip-rule="nonzero"/></clipPath></defs><g clip-path="url(#1f85200c2f)"><path fill="#ffffff" d="M 197.992188 157.257812 C 197.992188 157.757812 193.566406 236.351562 203.257812 309.4375 C 203.257812 309.4375 210.722656 346.136719 187.460938 346.136719 C 164.203125 346.113281 171.667969 309.4375 171.667969 309.4375 C 181.359375 236.351562 176.933594 157.757812 176.933594 157.257812 C 176.933594 142.429688 164.152344 140.058594 155.109375 120.679688 C 150.945312 111.765625 148.957031 102.019531 149.078125 92.195312 C 149.363281 71.789062 153.9375 28.886719 187.460938 28.886719 C 221.011719 28.886719 225.558594 71.789062 225.847656 92.195312 C 225.96875 102.019531 223.980469 111.765625 219.816406 120.65625 C 210.769531 140.058594 197.992188 142.429688 197.992188 157.257812 Z M 197.992188 157.257812 " fill-opacity="1" fill-rule="nonzero"/></g></svg>